<svg width="75" height="63" viewBox="0 0 75 63" fill="none" xmlns="http://www.w3.org/2000/svg">
<path d="M63.9498 62.295L73.6953 50.6266C74.2265 49.9906 74.1416 49.0452 73.5056 48.514C72.8696 47.9828 71.9241 48.0677 71.393 48.7037L64.5301 56.9207C62.2025 27.3303 45.8153 13.4282 32.1827 6.96551C16.9279 -0.265552 2.20562 0.0445698 1.5876 0.0608076C0.758254 0.0842928 0.106015 0.770376 0.129577 1.59967C0.128481 1.63115 0.131284 1.66227 0.134428 1.69729C0.204648 2.4793 0.870622 3.08229 1.66879 3.06163C1.81344 3.05648 16.3811 2.76414 30.9955 9.72722C49.8754 18.7197 60.1741 35.0943 61.6363 58.412L51.2658 49.7539C50.6298 49.2228 49.6843 49.3077 49.1532 49.9436C48.8876 50.2616 48.7778 50.6558 48.8124 51.041C48.8467 51.4223 49.0252 51.7945 49.3432 52.0601L61.8383 62.4925C62.4736 63.0159 63.4186 62.9309 63.9498 62.295Z" fill="black"/>
</svg>
